<svg enable-background="new 0 0 800 600" height="600" viewBox="0 0 800 600" width="800" xmlns="http://www.w3.org/2000/svg" xmlns:xlink="http://www.w3.org/1999/xlink"><linearGradient id="a" gradientTransform="matrix(1 0 0 -1 -8.3599 624.0547)" gradientUnits="userSpaceOnUse" x1="409.429" x2="409.4289" y1="20.7373" y2="921.9053"><stop offset="0"/><stop offset=".5394" stop-color="#1a1a1a"/><stop offset="1" stop-color="#333"/></linearGradient><linearGradient id="b"><stop offset="0" stop-color="#01bee5"/><stop offset=".2848" stop-color="#0698d8"/><stop offset=".697" stop-color="#016ed2"/><stop offset="1" stop-color="#123fb5"/></linearGradient><linearGradient id="c" gradientTransform="matrix(1 0 0 -1 -8.3599 624.0547)" gradientUnits="userSpaceOnUse" x1="494.6584" x2="494.6584" xlink:href="#b" y1="272.5825" y2="407.0071"/><clipPath id="d"><path d="m490.607 310.939c0 .535-.44.976-.978.976h-6.661c-.537 0-.979-.44-.979-.976v-5.726c0-.537.44-.978.979-.978h6.661c.536 0 .978.439.978.978z"/></clipPath><linearGradient id="e" gradientTransform="matrix(1 0 0 -1 -8.3599 624.0547)" gradientUnits="userSpaceOnUse" x1="317.2292" x2="317.2292" xlink:href="#b" y1="272.5815" y2="407.0039"/><linearGradient id="f" gradientTransform="matrix(1 0 0 -1 -8.3599 624.0547)" gradientUnits="userSpaceOnUse" x1="355.9998" x2="355.9998" xlink:href="#b" y1="272.5815" y2="407.0085"/><linearGradient id="g" gradientTransform="matrix(1 0 0 -1 -8.3599 624.0547)" gradientUnits="userSpaceOnUse" x1="393.0193" x2="393.0193" xlink:href="#b" y1="272.5806" y2="407.0099"/><linearGradient id="h" gradientTransform="matrix(1 0 0 -1 -8.3599 624.0547)" gradientUnits="userSpaceOnUse" x1="421.7366" x2="421.7366" xlink:href="#b" y1="272.5806" y2="407.009"/><linearGradient id="i" gradientTransform="matrix(1 0 0 -1 -8.3599 624.0547)" gradientUnits="userSpaceOnUse" x1="460.7542" x2="460.7542" xlink:href="#b" y1="272.5815" y2="407.0085"/><linearGradient id="j" gradientTransform="matrix(1 0 0 -1 -8.3599 624.0547)" gradientUnits="userSpaceOnUse" x1="494.6584" x2="494.6584" xlink:href="#b" y1="272.5815" y2="407.007"/><linearGradient id="k" gradientTransform="matrix(1 0 0 -1 -8.3599 624.0547)" gradientUnits="userSpaceOnUse" x1="509.7366" x2="509.7366" xlink:href="#b" y1="272.5815" y2="407.0039"/><linearGradient id="l" gradientTransform="matrix(1 0 0 -1 -8.3599 624.0547)" gradientUnits="userSpaceOnUse" x1="524.717" x2="524.717" xlink:href="#b" y1="272.5815" y2="407.0039"/><clipPath id="m"><path d="m490.607 310.939c0 .535-.44.976-.978.976h-6.661c-.537 0-.979-.44-.979-.976v-5.726c0-.537.44-.978.979-.978h6.661c.536 0 .978.439.978.978z"/></clipPath><mask id="n" height="43.768" maskUnits="userSpaceOnUse" width="230.306" x="290.453" y="303.364"><g clip-path="url(#o)" enable-background="new"><image height="58" overflow="visible" transform="matrix(.8615 0 0 .8411 287.9993 300.8701)" width="273" xlink:href="BCB11EC.jpeg"/></g></mask><clipPath id="o" clip-path="url(#m)"><path d="m490.607 310.939c0 .535-.44.976-.978.976h-6.661c-.537 0-.979-.44-.979-.976v-5.726c0-.537.44-.978.979-.978h6.661c.536 0 .978.439.978.978z"/></clipPath><clipPath id="p"><path d="m490.607 310.939c0 .535-.44.976-.978.976h-6.661c-.537 0-.979-.44-.979-.976v-5.726c0-.537.44-.978.979-.978h6.661c.536 0 .978.439.978.978z"/></clipPath><linearGradient id="q" gradientTransform="matrix(1 0 0 -1 -8.3599 624.0547)" gradientUnits="userSpaceOnUse" x1="494.6584" x2="494.6584" xlink:href="#b" y1="272.5806" y2="407.0078"/><linearGradient id="r"><stop offset="0" stop-color="#01bee5"/><stop offset=".2848" stop-color="#0698d8"/><stop offset=".697" stop-color="#016ed2"/><stop offset=".9212" stop-color="#123fb5"/></linearGradient><linearGradient id="s" gradientTransform="matrix(1 0 0 -1 -8.3599 624.0547)" gradientUnits="userSpaceOnUse" x1="413.8245" x2="643.5956" xlink:href="#r" y1="262.1562" y2="326.3718"/><linearGradient id="t" gradientTransform="matrix(1 0 0 -1 -8.3599 624.0547)" gradientUnits="userSpaceOnUse" x1="406.4026" x2="637.7939" xlink:href="#r" y1="279.4429" y2="344.1112"/><linearGradient id="u" gradientTransform="matrix(.9632 -.2689 -.2689 -.9632 113.428 700.8038)" gradientUnits="userSpaceOnUse" x1="232.01" x2="232.01" xlink:href="#b" y1="338.2178" y2="387.8769"/><linearGradient id="v" gradientTransform="matrix(.9632 -.2689 -.2689 -.9632 113.428 700.8038)" gradientUnits="userSpaceOnUse" x1="231.8728" x2="231.8728" xlink:href="#b" y1="318.0322" y2="365.6355"/><linearGradient id="w" gradientTransform="matrix(.9632 -.2689 -.2689 -.9632 113.428 700.8038)" gradientUnits="userSpaceOnUse" x1="211.179" x2="211.179" xlink:href="#b" y1="318.6621" y2="364.9849"/><linearGradient id="x" gradientTransform="matrix(.9632 -.2689 -.2689 -.9632 113.428 700.8038)" gradientUnits="userSpaceOnUse" x1="211.0417" x2="211.0417" xlink:href="#b" y1="338.5654" y2="386.9484"/><linearGradient id="y" gradientTransform="matrix(.9632 -.2689 -.2689 -.9632 113.428 700.8038)" gradientUnits="userSpaceOnUse" x1="223.5017" x2="217.2926" xlink:href="#r" y1="302.9561" y2="434.8935"/><linearGradient id="z" gradientTransform="matrix(1 0 0 -1 -8.3599 624.0547)" gradientUnits="userSpaceOnUse" x1="280.5916" x2="335.1677" xlink:href="#r" y1="352.5684" y2="352.5684"/><linearGradient id="A" gradientTransform="matrix(1 0 0 -1 -8.3599 624.0547)" gradientUnits="userSpaceOnUse" x1="325.8132" x2="413.6741" xlink:href="#r" y1="342.2266" y2="342.2266"/><linearGradient id="B" gradientTransform="matrix(1 0 0 -1 -8.3599 624.0547)" gradientUnits="userSpaceOnUse" x1="420.1272" x2="648.6218" xlink:href="#r" y1="247.4507" y2="311.3094"/><path d="m0 0h802.138v602.027h-802.138z" fill="url(#a)"/><g fill="#e6e6e6"><path d="m326.531 348.34h-19.385c-1.964 0-3.909-.27-5.831-.814-3.722-1.127-6.671-3.717-8.846-7.768-1.966-3.673-2.949-7.951-2.949-12.842 0-4.719.879-8.895 2.635-12.525 1.923-4.011 4.662-6.744 8.219-8.207 2.758-1.127 5.583-1.688 8.469-1.688h17.562v8.407h-18.253c-2.97 0-5.123 1.606-6.461 4.826-1.044 2.51-1.566 5.791-1.566 9.849 0 3.429.668 6.337 2.007 8.718 1.547 2.805 3.723 4.204 6.521 4.204h17.878z"/><path d="m363.479 348.34h-23.461c-2.633 0-4.885-.885-6.744-2.656s-2.792-4.013-2.792-6.722c0-2.836.847-5.179 2.535-7.034 1.69-1.853 3.806-2.785 6.349-2.785h15.143v-1.752c0-.545-.095-1.016-.281-1.414-.186-.396-.489-.867-.908-1.408-.584-.67-1.186-1.1-1.813-1.291-.623-.187-1.498-.276-2.627-.276h-16.2v-7.151h13.926 2.698c3.052 0 5.329.262 6.836.781 1.506.523 2.801 1.305 3.891 2.346 1.379 1.381 2.299 2.885 2.758 4.51.464 1.628.692 3.716.692 6.26v18.594h-.002zm-8.971-6.649v-6.336h-11.041c-1.045 0-1.936.299-2.667.9-.73.602-1.096 1.396-1.096 2.393 0 .869.354 1.594 1.063 2.172.713.582 1.528.871 2.448.871z"/><path d="m399.984 338.426c0 2.764-.887 5.126-2.664 7.092-1.78 1.967-4.025 2.949-6.746 2.949h-21.514v-5.898h17.64c1.249 0 2.303-.312 3.159-.938.854-.63 1.279-1.529 1.279-2.699 0-2.719-1.836-4.078-5.502-4.078h-9.009c-1.92 0-3.773-.916-5.566-2.761-1.793-1.839-2.695-3.825-2.695-5.956 0-3.011.672-5.438 2.013-7.275 1.548-2.092 3.824-3.141 6.837-3.141h20.697v6.148h-18.44c-.708 0-1.329.346-1.848 1.035-.524.691-.782 1.473-.782 2.354 0 .961.343 1.786 1.032 2.479.688.688 1.516 1.034 2.479 1.034h9.724c3.049 0 5.464.908 7.244 2.728 1.776 1.819 2.662 4.129 2.662 6.927z"/><path d="m424.321 322.621h-8.464v14.743c0 1.338.455 2.446 1.377 3.323 1.045.877 2.424 1.316 4.141 1.316h2.573v6.335h-8.091c-2.429 0-4.499-.881-6.213-2.635-1.003-1.046-1.65-2.193-1.945-3.45-.29-1.255-.438-2.736-.438-4.453v-15.18h-5.521v-6.772h5.521v-11.354h8.596v11.354h8.464z"/><path d="m475.573 348.34h-8.472v-20.336c0-.791-.081-1.415-.25-1.874-.168-.46-.501-.95-1.005-1.476-.498-.521-1.002-.895-1.506-1.125-.499-.225-1.083-.342-1.754-.342h-6.209v25.151h-8.596v-25.338h-10.039v25.34h-8.845v-32.492h34.817c2.174 0 3.888.198 5.144.598 1.254.395 2.486 1.238 3.699 2.531.963 1.045 1.701 2.066 2.229 3.067.52 1.004.784 2.088.784 3.254v23.042z"/><path d="m481.97 315.803h8.659v32.491h-8.659z"/></g><path d="m490.607 310.939c0 .535-.44.976-.978.976h-6.661c-.537 0-.979-.44-.979-.976v-5.726c0-.537.44-.978.979-.978h6.661c.536 0 .978.439.978.978z" fill="url(#c)"/><path d="m490.607 310.939c0 .535-.44.976-.978.976h-6.661c-.537 0-.979-.44-.979-.976v-5.726c0-.537.44-.978.979-.978h6.661c.536 0 .978.439.978.978z" fill="url(#c)"/><g clip-path="url(#d)"><path d="m327.286 346.029c0 .537-.438.976-.976.976h-17.339c-.537 0-1.415-.03-1.951-.069 0 0-2.916-.199-4.83-.742-3.706-1.121-6.638-3.699-8.805-7.728-1.957-3.657-2.933-7.919-2.933-12.782 0-4.695.874-8.852 2.621-12.47 1.913-3.985 4.639-6.71 8.179-8.167 2.746-1.122 5.556-1.682 8.427-1.682h16.504c.537 0 .976.438.976.976v6.416c0 .535-.438.976-.976.976h-16.213c-.536 0-1.396.131-1.907.293 0 0-4.167 1.306-5.501 4.515-1.039 2.496-1.561 5.763-1.561 9.801 0 3.414.666 6.31 1.998 8.677 1.54 2.791 3.705 4.182 6.492 4.182h16.817c.537 0 .976.439.976.978z" fill="url(#e)"/><path d="m364.061 346.029c0 .537-.439.976-.977.976h-21.398c-.537 0-1.408-.078-1.938-.173 0 0-3.899-.708-5.75-2.471-1.852-1.764-2.778-3.992-2.778-6.689 0-2.822.841-5.156 2.521-7.003 1.683-1.846 3.789-2.769 6.317-2.769h14.096c.537 0 .977-.394.977-.873 0-.48-.04-1.313-.093-1.846 0 0-.001-.035-.187-.435-.187-.396-.488-.865-.907-1.405-.579-.666-1.18-1.091-1.804-1.281-.621-.187-1.492-.278-2.614-.278h-15.146c-.537 0-.978-.438-.978-.976v-5.168c0-.537.44-.978.978-.978h11.906 1.953.732c.535 0 1.414.022 1.951.05 0 0 4.328.218 5.826.729 1.5.523 2.788 1.303 3.872 2.34 1.373 1.371 2.29 2.869 2.747 4.492.459 1.617.688 3.69.688 6.226v17.532zm-9.905-5.643c.537 0 .977-.44.977-.978v-4.35c0-.537-.438-.977-.977-.977h-9.038c-.536 0-1.41.064-1.939.148 0 0-.96.146-1.689.748-.727.599-1.09 1.389-1.09 2.379 0 .865.353 1.588 1.059 2.164.709.578 1.521.862 2.437.862h10.262v.004z" fill="url(#f)"/><path d="m400.395 337.141c0 2.748-.884 5.096-2.655 7.059-1.77 1.953-4.006 2.933-6.713 2.933h-20.434c-.538 0-.979-.44-.979-.977v-3.919c0-.536.439-.975.979-.975h15.602c.536 0 1.412-.062 1.945-.134 0 0 1.324-.18 2.175-.801.851-.626 1.276-1.521 1.276-2.687 0-2.705-1.83-4.058-5.479-4.058h-7.99c-.536 0-1.402-.104-1.925-.231 0 0-2.807-.688-4.592-2.519-1.785-1.832-2.681-3.808-2.681-5.933 0-2.996.667-5.407 1.998-7.238 1.542-2.082 3.808-3.126 6.807-3.126h19.624c.536 0 .977.442.977.978v4.168c0 .537-.439.976-.977.976h-16.401c-.536 0-1.399.11-1.922.243 0 0-.378.101-.892.787-.523.688-.78 1.47-.78 2.346 0 .953.341 1.771 1.028 2.464.686.687 1.506 1.03 2.466 1.03h8.701c.536 0 1.408.072 1.938.16 0 0 4.477.742 6.245 2.551 1.775 1.817 2.659 4.116 2.659 6.903z" fill="url(#g)"/><path d="m424.614 320.432c0 .535-.438.977-.977.977h-6.476c-.536 0-.976.439-.976.976v12.724c0 .535.081 1.408.18 1.935 0 0 .277 1.474 1.194 2.347 1.039.875 2.411 1.312 4.121 1.312h1.583c.535 0 .976.44.976.978v4.354c0 .536-.439.976-.976.976h-6.104c-.537 0-1.406-.084-1.934-.188 0 0-3.517-.688-5.221-2.438-.999-1.041-1.646-2.185-1.938-3.433-.29-1.247-.435-2.726-.435-4.435v-14.132c0-.534-.44-.976-.979-.976h-3.542c-.537 0-.975-.44-.975-.977v-4.793c0-.535.438-.977.975-.977h3.542c.537 0 .979-.438.979-.977v-9.346c0-.538.438-.976.975-.976h6.602c.536 0 .977.438.977.976v9.346c0 .537.438.977.976.977h6.476c.537 0 .977.439.977.977z" fill="url(#h)"/><path d="m475.622 346.029c0 .537-.438.976-.976.976h-6.477c-.538 0-.977-.438-.977-.976v-18.286c0-.537-.027-1.415-.058-1.951 0 0-.027-.437-.193-.896-.165-.457-.497-.947-1.001-1.465-.496-.521-.996-.893-1.5-1.119-.494-.229-1.078-.344-1.745-.344h-5.203c-.537 0-.976.44-.976.977v23.084c0 .537-.439.976-.978.976h-6.604c-.534 0-.975-.438-.975-.976v-23.271c0-.537-.439-.977-.979-.977h-8.036c-.537 0-.977.439-.977.977v23.271c0 .537-.44.976-.979.976h-6.849c-.537 0-.979-.438-.979-.976v-30.391c0-.537.44-.978.979-.978h32.697c.536 0 1.417.022 1.95.05 0 0 2.896.152 4.146.54 1.25.401 2.479 1.243 3.684 2.528.956 1.041 1.692 2.058 2.215 3.054.52.998.782 2.074.782 3.237v21.959h.009z" fill="url(#i)"/><path d="m490.607 310.066c0 .535-.44.979-.978.979h-6.661c-.537 0-.979-.441-.979-.979v-5.727c0-.538.44-.976.979-.976h6.661c.536 0 .978.438.978.976zm0 35.963c0 .537-.44.976-.978.976h-6.661c-.537 0-.979-.438-.979-.976v-30.391c0-.537.44-.978.979-.978h6.661c.536 0 .978.44.978.978z" fill="url(#j)"/><path d="m505.777 346.029c0 .537-.438.976-.978.976h-6.849c-.534 0-.976-.438-.976-.976v-41.688c0-.538.439-.976.976-.976h6.849c.54 0 .978.438.978.976z" fill="url(#k)"/><path d="m520.759 346.029c0 .537-.439.976-.978.976h-6.85c-.539 0-.978-.438-.978-.976v-41.688c0-.538.438-.976.978-.976h6.85c.537 0 .978.438.978.976z" fill="url(#l)"/></g><g clip-path="url(#m)" mask="url(#n)" opacity=".88"><path d="m327.286 346.029c0 .537-.438.976-.976.976h-17.339c-.537 0-1.415-.03-1.951-.069 0 0-2.916-.199-4.83-.742-3.706-1.121-6.638-3.699-8.805-7.728-1.957-3.657-2.933-7.919-2.933-12.782 0-4.695.874-8.852 2.621-12.47 1.913-3.985 4.639-6.71 8.179-8.167 2.746-1.122 5.556-1.682 8.427-1.682h16.504c.537 0 .976.438.976.976v6.416c0 .535-.438.976-.976.976h-16.213c-.536 0-1.396.131-1.907.293 0 0-4.167 1.306-5.501 4.515-1.039 2.496-1.561 5.763-1.561 9.801 0 3.414.666 6.31 1.998 8.677 1.54 2.791 3.705 4.182 6.492 4.182h16.817c.537 0 .976.439.976.978z" fill="url(#e)"/><path d="m364.061 346.029c0 .537-.439.976-.977.976h-21.398c-.537 0-1.408-.078-1.938-.173 0 0-3.899-.708-5.75-2.471-1.852-1.764-2.778-3.992-2.778-6.689 0-2.822.841-5.156 2.521-7.003 1.683-1.846 3.789-2.769 6.317-2.769h14.096c.537 0 .977-.394.977-.873 0-.48-.04-1.313-.093-1.846 0 0-.001-.035-.187-.435-.187-.396-.488-.865-.907-1.405-.579-.666-1.18-1.091-1.804-1.281-.621-.187-1.492-.278-2.614-.278h-15.146c-.537 0-.978-.438-.978-.976v-5.168c0-.537.44-.978.978-.978h11.906 1.953.732c.535 0 1.414.022 1.951.05 0 0 4.328.218 5.826.729 1.5.523 2.788 1.303 3.872 2.34 1.373 1.371 2.29 2.869 2.747 4.492.459 1.617.688 3.69.688 6.226v17.532zm-9.905-5.643c.537 0 .977-.44.977-.978v-4.35c0-.537-.438-.977-.977-.977h-9.038c-.536 0-1.41.064-1.939.148 0 0-.96.146-1.689.748-.727.599-1.09 1.389-1.09 2.379 0 .865.353 1.588 1.059 2.164.709.578 1.521.862 2.437.862h10.262v.004z" fill="url(#f)"/><path d="m400.395 337.141c0 2.748-.884 5.096-2.655 7.059-1.77 1.953-4.006 2.933-6.713 2.933h-20.434c-.538 0-.979-.44-.979-.977v-3.919c0-.536.439-.975.979-.975h15.602c.536 0 1.412-.062 1.945-.134 0 0 1.324-.18 2.175-.801.851-.626 1.276-1.521 1.276-2.687 0-2.705-1.83-4.058-5.479-4.058h-7.99c-.536 0-1.402-.104-1.925-.231 0 0-2.807-.688-4.592-2.519-1.785-1.832-2.681-3.808-2.681-5.933 0-2.996.667-5.407 1.998-7.238 1.542-2.082 3.808-3.126 6.807-3.126h19.624c.536 0 .977.442.977.978v4.168c0 .537-.439.976-.977.976h-16.401c-.536 0-1.399.11-1.922.243 0 0-.378.101-.892.787-.523.688-.78 1.47-.78 2.346 0 .953.341 1.771 1.028 2.464.686.687 1.506 1.03 2.466 1.03h8.701c.536 0 1.408.072 1.938.16 0 0 4.477.742 6.245 2.551 1.775 1.817 2.659 4.116 2.659 6.903z" fill="url(#g)"/><path d="m424.614 320.432c0 .535-.438.977-.977.977h-6.476c-.536 0-.976.439-.976.976v12.724c0 .535.081 1.408.18 1.935 0 0 .277 1.474 1.194 2.347 1.039.875 2.411 1.312 4.121 1.312h1.583c.535 0 .976.44.976.978v4.354c0 .536-.439.976-.976.976h-6.104c-.537 0-1.406-.084-1.934-.188 0 0-3.517-.688-5.221-2.438-.999-1.041-1.646-2.185-1.938-3.433-.29-1.247-.435-2.726-.435-4.435v-14.132c0-.534-.44-.976-.979-.976h-3.542c-.537 0-.975-.44-.975-.977v-4.793c0-.535.438-.977.975-.977h3.542c.537 0 .979-.438.979-.977v-9.346c0-.538.438-.976.975-.976h6.602c.536 0 .977.438.977.976v9.346c0 .537.438.977.976.977h6.476c.537 0 .977.439.977.977z" fill="url(#h)"/><path d="m475.622 346.029c0 .537-.438.976-.976.976h-6.477c-.538 0-.977-.438-.977-.976v-18.286c0-.537-.027-1.415-.058-1.951 0 0-.027-.437-.193-.896-.165-.457-.497-.947-1.001-1.465-.496-.521-.996-.893-1.5-1.119-.494-.229-1.078-.344-1.745-.344h-5.203c-.537 0-.976.44-.976.977v23.084c0 .537-.439.976-.978.976h-6.604c-.534 0-.975-.438-.975-.976v-23.271c0-.537-.439-.977-.979-.977h-8.036c-.537 0-.977.439-.977.977v23.271c0 .537-.44.976-.979.976h-6.849c-.537 0-.979-.438-.979-.976v-30.391c0-.537.44-.978.979-.978h32.697c.536 0 1.417.022 1.95.05 0 0 2.896.152 4.146.54 1.25.401 2.479 1.243 3.684 2.528.956 1.041 1.692 2.058 2.215 3.054.52.998.782 2.074.782 3.237v21.959h.009z" fill="url(#i)"/><path d="m490.607 310.066c0 .535-.44.979-.978.979h-6.661c-.537 0-.979-.441-.979-.979v-5.727c0-.538.44-.976.979-.976h6.661c.536 0 .978.438.978.976zm0 35.963c0 .537-.44.976-.978.976h-6.661c-.537 0-.979-.438-.979-.976v-30.391c0-.537.44-.978.979-.978h6.661c.536 0 .978.44.978.978z" fill="url(#j)"/><path d="m505.777 346.029c0 .537-.438.976-.978.976h-6.849c-.534 0-.976-.438-.976-.976v-41.688c0-.538.439-.976.976-.976h6.849c.54 0 .978.438.978.976z" fill="url(#k)"/><path d="m520.759 346.029c0 .537-.439.976-.978.976h-6.85c-.539 0-.978-.438-.978-.976v-41.688c0-.538.438-.976.978-.976h6.85c.537 0 .978.438.978.976z" fill="url(#l)"/></g><g clip-path="url(#p)"><path d="m490.607 311.46c0 .537-.44.976-.978.976h-6.661c-.537 0-.979-.438-.979-.976v-5.726c0-.535.44-.977.979-.977h6.661c.536 0 .978.44.978.977zm0 35.96c0 .539-.44.979-.978.979h-6.661c-.537 0-.979-.438-.979-.979v-30.385c0-.537.44-.979.979-.979h6.661c.536 0 .978.44.978.979z" fill="url(#q)"/></g><path d="m490.607 310.939c0 .535-.44.976-.978.976h-6.661c-.537 0-.979-.44-.979-.976v-5.726c0-.537.44-.978.979-.978h6.661c.536 0 .978.439.978.978z" fill="url(#c)"/><path d="m505.867 348.34h-8.84v-43.845h8.84z" fill="#e6e6e6"/><path d="m558.615 295.058c-4.938 6.448-9.261 13.117-9.509 13.519-2.562 4.212-5.83 7.938-8.766 11.731l38.521 17.168c7.028-7.558 13.781-15.703 20.242-24.224z" fill="url(#s)"/><path d="m602.902 273.984c9.746-12.988 15.609-8.912 19.817-6.759 4.906 2.353 4.645 2.431 5.369 2.877l-4.587 7.393c-6.279 10.159-12.985 20.233-20.051 29.93l-40.73-18.309c3.278-3.812 9.71-12.862 11.322-12.862 0 0 3.995-4.586 12.132-1.179 8.134 3.401 14.107 2.395 16.728-1.091z" fill="url(#t)"/><path d="m520.923 335.798v-31.303h-8.847v39.193z" fill="#e6e6e6"/><path d="m239.027 289.184-2.888 8.661 4.168 2.347 5.911-6.958c-2.065-1.869-4.522-3.252-7.191-4.05z" fill="url(#u)"/><path d="m240.717 314.238 6.535 5.553c1.871-1.988 3.3-4.352 4.156-6.938l-8.346-2.785z" fill="url(#v)"/><path d="m226.671 314.645-5.334 6.277c1.995 1.771 4.346 3.098 6.895 3.887l2.606-7.816z" fill="url(#w)"/><path d="m215.784 302.057 8.13 2.711 2.349-4.166-6.697-5.691c-1.77 2.069-3.051 4.516-3.782 7.146z" fill="url(#x)"/><path d="m221.933 265.891c-22.914 6.396-36.303 30.157-29.906 53.07 6.396 22.915 30.157 36.305 53.071 29.908s36.303-30.158 29.906-53.071c-6.397-22.914-30.157-36.304-53.071-29.907zm-18.371 12.364 24.69 20.981c.54.462.695 1.338.349 1.958l-2.971 5.271c-.348.615-1.185.938-1.855.713l-30.712-10.244c1.822-7.023 5.446-13.473 10.499-18.679zm29.685 38.875-10.233 30.688c-7.016-1.83-13.457-5.461-18.654-10.516l20.947-24.648c.46-.538 1.339-.696 1.956-.351l5.271 2.972c.616.347.938 1.183.713 1.855zm.483-19.423 10.263-30.771c7.027 1.828 13.479 5.463 18.685 10.527l-21.005 24.714c-.458.541-1.339.699-1.956.353l-5.274-2.969c-.62-.349-.94-1.182-.713-1.854zm29.673 38.865-24.677-20.969c-.54-.459-.697-1.342-.348-1.957l2.968-5.274c.347-.62 1.184-.938 1.854-.712l30.742 10.254c-1.835 7.02-5.474 13.461-10.539 18.658z" fill="url(#y)"/><path d="m313.571 253.917s-18.471 4.604-41.339 27.624c1.506 2.338 2.801 4.85 3.85 7.516 12.843-11.15 34.439-26.556 50.727-21.071-.001-.001-6.235-9.769-13.238-14.069z" fill="url(#z)"/><path d="m357.201 311.173h7.065c-1.032-1.799-2.062-3.632-3.085-5.563l-3.15-5.947c-1.922-3.631-3.625-6.79-5.202-9.649l24.741-8.436c3.003 4.097 6.064 8.6 9.117 13.388 1.109 1.742 2.189 3.402 3.249 5.009l-23.089 11.199h17.167l10.163-4.929c1.197 1.73 2.356 3.365 3.486 4.929h7.65c-3.977-5.286-8.475-11.738-13.514-19.645-24.443-38.346-41.757-39.043-41.757-39.043h-6.604c1.922.521 3.938 1.381 6.281 2.756l-19.45 3.555c-.339-.358-.674-.709-1.028-1.078-.104-.11-3.378-3.251-5.433-5.233h-6.356c19.352 19.173 19.689 20.917 38.362 56.126.463.867.925 1.72 1.387 2.561zm-21.085-46.045 22.075-4.037c1.064.813 2.182 1.68 3.371 2.619 3.477 2.751 7.316 6.806 11.334 11.782l-23.71 8.083c-4.773-8.173-8.361-13.099-13.07-18.447z" fill="url(#A)"/><path d="m567.387 349c2.109-1.971 4.201-4 6.267-6.089l-37.837-16.863c-6.979 8.651-14.504 16.257-22.136 22.952z" fill="url(#B)"/></svg>